<?xml version="1.0" encoding="UTF-8"?>
<svg width="100px" height="100px" viewBox="0 0 100 100" version="1.1" xmlns="http://www.w3.org/2000/svg" xmlns:xlink="http://www.w3.org/1999/xlink">
    <!-- Generator: Sketch 43.1 (39012) - http://www.bohemiancoding.com/sketch -->
    <title>002-bars-chart</title>
    <desc>Created with Sketch.</desc>
    <defs></defs>
    <g id="Page-1" stroke="none" stroke-width="1" fill="none" fill-rule="evenodd">
        <g id="002-bars-chart" fill-rule="nonzero">
            <path d="M57.6460039,98.0534274 L49.0421053,98.0534274 C48.0918129,98.0534274 47.3212476,97.2564516 47.3212476,96.2735887 L47.3212476,55.3393145 C47.3212476,54.3564516 48.0918129,53.5594758 49.0421053,53.5594758 L57.6460039,53.5594758 C58.5962963,53.5594758 59.3668616,54.3564516 59.3668616,55.3393145 L59.3668616,96.2735887 C59.3668616,97.2564516 58.5962963,98.0534274 57.6460039,98.0534274 Z" id="Shape" fill="#FFD782"></path>
            <path d="M57.6460039,98.0534274 L49.0421053,98.0534274 C48.0918129,98.0534274 47.3212476,97.2564516 47.3212476,96.2735887 L47.3212476,66.0177419 C47.3212476,65.034879 48.0918129,64.2379032 49.0421053,64.2379032 L57.6460039,64.2379032 C58.5962963,64.2379032 59.3668616,65.034879 59.3668616,66.0177419 L59.3668616,96.2735887 C59.3668616,97.2564516 58.5962963,98.0534274 57.6460039,98.0534274 Z" id="Shape" fill="#FFC36E"></path>
            <path d="M74.8538012,98.0534274 L66.2499025,98.0534274 C65.2996101,98.0534274 64.5290448,97.2564516 64.5290448,96.2735887 L64.5290448,23.303629 C64.5290448,22.3207661 65.2996101,21.5237903 66.2499025,21.5237903 L74.8538012,21.5237903 C75.8040936,21.5237903 76.5746589,22.3207661 76.5746589,23.303629 L76.5746589,96.2735887 C76.5746589,97.2564516 75.8040936,98.0534274 74.8538012,98.0534274 Z" id="Shape" fill="#C3E678"></path>
            <path d="M74.8538012,98.0534274 L66.2499025,98.0534274 C65.2996101,98.0534274 64.5290448,97.2564516 64.5290448,96.2735887 L64.5290448,44.6606855 C64.5290448,43.6778226 65.2996101,42.8808468 66.2499025,42.8808468 L74.8538012,42.8808468 C75.8040936,42.8808468 76.5746589,43.6778226 76.5746589,44.6606855 L76.5746589,96.2735887 C76.5746589,97.2564516 75.8040936,98.0534274 74.8538012,98.0534274 Z" id="Shape" fill="#A5D76E"></path>
            <path d="M23.2304094,98.0534274 L14.6265107,98.0534274 C13.6762183,98.0534274 12.905653,97.2564516 12.905653,96.2735887 L12.905653,66.0177419 C12.905653,65.034879 13.6762183,64.2379032 14.6265107,64.2379032 L23.2304094,64.2379032 C24.1807018,64.2379032 24.9512671,65.034879 24.9512671,66.0177419 L24.9512671,96.2735887 C24.9512671,97.2564516 24.1807018,98.0534274 23.2304094,98.0534274 Z" id="Shape" fill="#00D2FF"></path>
            <path d="M92.0615984,98.0534274 L83.4576998,98.0534274 C82.5074074,98.0534274 81.7368421,97.2564516 81.7368421,96.2735887 L81.7368421,12.6252016 C81.7368421,11.6423387 82.5074074,10.8453629 83.4576998,10.8453629 L92.0615984,10.8453629 C93.0118908,10.8453629 93.7824561,11.6423387 93.7824561,12.6252016 L93.7824561,96.2737903 C93.7822612,97.2564516 93.0118908,98.0534274 92.0615984,98.0534274 Z" id="Shape" fill="#9BE6D2"></path>
            <path d="M92.0615984,98.0534274 L83.4576998,98.0534274 C82.5074074,98.0534274 81.7368421,97.2564516 81.7368421,96.2735887 L81.7368421,33.9822581 C81.7368421,32.9993952 82.5074074,32.2024194 83.4576998,32.2024194 L92.0615984,32.2024194 C93.0118908,32.2024194 93.7824561,32.9993952 93.7824561,33.9822581 L93.7824561,96.2737903 C93.7822612,97.2564516 93.0118908,98.0534274 92.0615984,98.0534274 Z" id="Shape" fill="#78D2BE"></path>
            <path d="M40.4382066,98.0534274 L31.834308,98.0534274 C30.8840156,98.0534274 30.1134503,97.2564516 30.1134503,96.2735887 L30.1134503,44.6606855 C30.1134503,43.6778226 30.8840156,42.8808468 31.834308,42.8808468 L40.4382066,42.8808468 C41.388499,42.8808468 42.1590643,43.6778226 42.1590643,44.6606855 L42.1590643,96.2735887 C42.1590643,97.2564516 41.388499,98.0534274 40.4382066,98.0534274 Z" id="Shape" fill="#FF6464"></path>
            <path d="M40.4382066,98.0534274 L31.834308,98.0534274 C30.8840156,98.0534274 30.1134503,97.2564516 30.1134503,96.2735887 L30.1134503,55.3393145 C30.1134503,54.3564516 30.8840156,53.5594758 31.834308,53.5594758 L40.4382066,53.5594758 C41.388499,53.5594758 42.1590643,54.3564516 42.1590643,55.3393145 L42.1590643,96.2735887 C42.1590643,97.2564516 41.388499,98.0534274 40.4382066,98.0534274 Z" id="Shape" fill="#D2555A"></path>
            <path d="M23.2304094,98.0534274 L14.6265107,98.0534274 C13.6762183,98.0534274 12.905653,97.2564516 12.905653,96.2735887 L12.905653,76.696371 C12.905653,75.7135081 13.6762183,74.9165323 14.6265107,74.9165323 L23.2304094,74.9165323 C24.1807018,74.9165323 24.9512671,75.7135081 24.9512671,76.696371 L24.9512671,96.2735887 C24.9512671,97.2564516 24.1807018,98.0534274 23.2304094,98.0534274 Z" id="Shape" fill="#18BDF6"></path>
            <g id="Group" transform="translate(0.000000, 10.685484)" fill="#D7DEED">
                <path d="M5.16237817,78.4691532 L1.7208577,78.4691532 C0.770565302,78.4691532 0,77.6721774 0,76.6893145 L0,76.6893145 C0,75.7064516 0.770565302,74.9094758 1.7208577,74.9094758 L5.16237817,74.9094758 L5.16237817,78.4691532 Z" id="Shape"></path>
                <path d="M5.16237817,67.7905242 L1.7208577,67.7905242 C0.770565302,67.7905242 0,66.9935484 0,66.0106855 L0,66.0106855 C0,65.0278226 0.770565302,64.2308468 1.7208577,64.2308468 L5.16237817,64.2308468 L5.16237817,67.7905242 Z" id="Shape"></path>
                <path d="M5.16237817,57.1120968 L1.7208577,57.1120968 C0.770565302,57.1120968 0,56.315121 0,55.3322581 L0,55.3322581 C0,54.3493952 0.770565302,53.5524194 1.7208577,53.5524194 L5.16237817,53.5524194 L5.16237817,57.1120968 Z" id="Shape"></path>
                <path d="M5.16237817,46.4334677 L1.7208577,46.4334677 C0.770565302,46.4334677 0,45.6364919 0,44.653629 L0,44.653629 C0,43.6707661 0.770565302,42.8737903 1.7208577,42.8737903 L5.16237817,42.8737903 L5.16237817,46.4334677 Z" id="Shape"></path>
                <path d="M5.16237817,35.7550403 L1.7208577,35.7550403 C0.770565302,35.7550403 0,34.9580645 0,33.9752016 L0,33.9752016 C0,32.9923387 0.770565302,32.1953629 1.7208577,32.1953629 L5.16237817,32.1953629 L5.16237817,35.7550403 Z" id="Shape"></path>
                <path d="M5.16237817,25.0764113 L1.7208577,25.0764113 C0.770565302,25.0764113 0,24.2794355 0,23.2965726 L0,23.2965726 C0,22.3137097 0.770565302,21.5167339 1.7208577,21.5167339 L5.16237817,21.5167339 L5.16237817,25.0764113 Z" id="Shape"></path>
                <path d="M5.16237817,14.3979839 L1.7208577,14.3979839 C0.770565302,14.3979839 0,13.6010081 0,12.6181452 L0,12.6181452 C0,11.6352823 0.770565302,10.8383065 1.7208577,10.8383065 L5.16237817,10.8383065 L5.16237817,14.3979839 Z" id="Shape"></path>
                <path d="M5.16237817,3.71935484 L1.7208577,3.71935484 C0.770565302,3.71935484 0,2.92258065 0,1.93971774 L0,1.93971774 C0,0.956854839 0.770565302,0.159879032 1.7208577,0.159879032 L5.16237817,0.159879032 L5.16237817,3.71935484 Z" id="Shape"></path>
            </g>
            <path d="M5.16237817,98.0534274 L5.16237817,98.0534274 C4.21208577,98.0534274 3.44152047,97.2564516 3.44152047,96.2735887 L3.44152047,1.94657258 C3.44152047,0.963709677 4.21208577,0.166733871 5.16237817,0.166733871 L5.16237817,0.166733871 C6.11267057,0.166733871 6.88323587,0.963709677 6.88323587,1.94657258 L6.88323587,96.2735887 C6.88304094,97.2564516 6.11267057,98.0534274 5.16237817,98.0534274 Z" id="Shape" fill="#C7CFE2"></path>
            <path d="M0,98.0534274 L0,98.0534274 C0,97.0705645 0.770565302,96.2735887 1.7208577,96.2735887 L98.0844055,96.2735887 C99.0346979,96.2735887 99.8052632,97.0705645 99.8052632,98.0534274 L99.8052632,98.0534274 C99.8052632,99.0362903 99.0346979,99.8332661 98.0844055,99.8332661 L1.7208577,99.8332661 C0.770565302,99.8330645 0,99.0362903 0,98.0534274 Z" id="Shape" fill="#AFB9D2"></path>
        </g>
    </g>
</svg>