<?xml version="1.0" encoding="UTF-8"?>
<svg width="100px" height="100px" viewBox="0 0 100 100" version="1.1" xmlns="http://www.w3.org/2000/svg" xmlns:xlink="http://www.w3.org/1999/xlink">
    <!-- Generator: Sketch 43.1 (39012) - http://www.bohemiancoding.com/sketch -->
    <title>001-change</title>
    <desc>Created with Sketch.</desc>
    <defs></defs>
    <g id="Page-1" stroke="none" stroke-width="1" fill="none" fill-rule="evenodd">
        <g id="001-change" fill-rule="nonzero">
            <path d="M37.254902,89.4736842 L37.254902,82.4561404 L37.254902,75.4385965 L37.254902,68.4210526 L37.254902,61.4035088 C37.254902,55.5894737 45.5941176,50.877193 55.8823529,50.877193 C58.3078431,50.877193 60.6196078,51.1473684 62.745098,51.6245614 L62.745098,0 L0,0 L0,98.245614 L45.5941176,98.245614 C40.5705882,96.3596491 37.254902,93.1368421 37.254902,89.4736842" id="XMLID_127_" fill="#6E8C61"></path>
            <path d="M9.80392157,37.0070175 C14.3156863,30.5929825 22.2764706,26.3157895 31.372549,26.3157895 C40.4686275,26.3157895 48.4294118,30.5912281 52.9411765,37.0070175 L52.9411765,19.254386 C52.6176471,19.2807018 52.2921569,19.2982456 51.9607843,19.2982456 C46.0039216,19.2982456 41.1764706,14.977193 41.1764706,9.64912281 C41.1764706,9.35263158 41.1960784,9.06140351 41.2254902,8.77192982 L21.5196078,8.77192982 C21.5490196,9.06140351 21.5686275,9.35263158 21.5686275,9.64912281 C21.5686275,14.977193 16.7411765,19.2982456 10.7843137,19.2982456 C10.4529412,19.2982456 10.127451,19.2807018 9.80392157,19.254386 L9.80392157,37.0070175 Z" id="XMLID_126_" fill="#E9E8D3"></path>
            <path d="M37.254902,75.4385965 L37.254902,71.3052632 C35.3666667,71.7070175 33.4,71.9298246 31.372549,71.9298246 C22.2764706,71.9298246 14.3156863,67.654386 9.80392157,61.2385965 L9.80392157,78.9912281 C10.127451,78.9649123 10.4529412,78.9473684 10.7843137,78.9473684 C16.7411765,78.9473684 21.5686275,83.2666667 21.5686275,88.5964912 C21.5686275,88.8929825 21.5490196,89.1842105 21.5196078,89.4736842 L37.254902,89.4736842 L37.254902,82.4561404 L37.254902,75.4385965 Z" id="XMLID_125_" fill="#E9E8D3"></path>
            <path d="M47.0588235,9.64912281 C47.0588235,7.22982456 49.2568627,5.26315789 51.9607843,5.26315789 C54.6647059,5.26315789 56.8627451,7.22982456 56.8627451,9.64912281 C56.8627451,12.0684211 54.6647059,14.0350877 51.9607843,14.0350877 C49.2568627,14.0350877 47.0588235,12.0684211 47.0588235,9.64912281" id="XMLID_124_" fill="#E9E8D3"></path>
            <path d="M5.88235294,9.64912281 C5.88235294,7.22982456 8.08039216,5.26315789 10.7843137,5.26315789 C13.4882353,5.26315789 15.6862745,7.22982456 15.6862745,9.64912281 C15.6862745,12.0684211 13.4882353,14.0350877 10.7843137,14.0350877 C8.08039216,14.0350877 5.88235294,12.0684211 5.88235294,9.64912281" id="XMLID_123_" fill="#E9E8D3"></path>
            <path d="M5.88235294,88.5964912 C5.88235294,86.177193 8.08039216,84.2105263 10.7843137,84.2105263 C13.4882353,84.2105263 15.6862745,86.177193 15.6862745,88.5964912 C15.6862745,91.0157895 13.4882353,92.9824561 10.7843137,92.9824561 C8.08039216,92.9824561 5.88235294,91.0157895 5.88235294,88.5964912" id="XMLID_122_" fill="#E9E8D3"></path>
            <path d="M74.5098039,61.4035088 C74.5098039,67.2175439 66.1705882,71.9298246 55.8823529,71.9298246 C45.5941176,71.9298246 37.254902,67.2175439 37.254902,61.4035088 C37.254902,55.5894737 45.5941176,50.877193 55.8823529,50.877193 C66.1705882,50.877193 74.5098039,55.5894737 74.5098039,61.4035088" id="XMLID_121_" fill="#FCC62D"></path>
            <path d="M55.8823529,92.9824561 C45.5941176,92.9824561 37.254902,88.2701754 37.254902,82.4561404 L37.254902,89.4736842 C37.254902,95.2877193 45.5941176,100 55.8823529,100 C66.1705882,100 74.5098039,95.2877193 74.5098039,89.4736842 L74.5098039,82.4561404 C74.5098039,88.2701754 66.1705882,92.9824561 55.8823529,92.9824561" id="XMLID_120_" fill="#D19D18"></path>
            <path d="M55.8823529,85.9649123 C45.5941176,85.9649123 37.254902,81.2526316 37.254902,75.4385965 L37.254902,82.4561404 C37.254902,88.2701754 45.5941176,92.9824561 55.8823529,92.9824561 C66.1705882,92.9824561 74.5098039,88.2701754 74.5098039,82.4561404 L74.5098039,75.4385965 C74.5098039,81.2526316 66.1705882,85.9649123 55.8823529,85.9649123" id="XMLID_119_" fill="#E4AF18"></path>
            <path d="M55.8823529,78.9473684 C45.5941176,78.9473684 37.254902,74.2350877 37.254902,68.4210526 L37.254902,75.4385965 C37.254902,81.2526316 45.5941176,85.9649123 55.8823529,85.9649123 C66.1705882,85.9649123 74.5098039,81.2526316 74.5098039,75.4385965 L74.5098039,68.4210526 C74.5098039,74.2350877 66.1705882,78.9473684 55.8823529,78.9473684" id="XMLID_118_" fill="#D19D18"></path>
            <path d="M55.8823529,71.9298246 C45.5941176,71.9298246 37.254902,67.2175439 37.254902,61.4035088 L37.254902,68.4210526 C37.254902,74.2350877 45.5941176,78.9473684 55.8823529,78.9473684 C66.1705882,78.9473684 74.5098039,74.2350877 74.5098039,68.4210526 L74.5098039,61.4035088 C74.5098039,67.2175439 66.1705882,71.9298246 55.8823529,71.9298246" id="XMLID_117_" fill="#E4AF18"></path>
            <path d="M100,40.3508772 C100,46.1649123 91.6607843,50.877193 81.372549,50.877193 C71.0843137,50.877193 62.745098,46.1649123 62.745098,40.3508772 C62.745098,34.5368421 71.0843137,29.8245614 81.372549,29.8245614 C91.6607843,29.8245614 100,34.5368421 100,40.3508772" id="XMLID_116_" fill="#FCC62D"></path>
            <path d="M42.9784314,53.822807 C47.0941176,47.2438596 43.1372549,40.3508772 43.1372549,40.3508772 C41.4647059,39.9140351 36.5647059,41.2210526 36.0019608,42.6421053 C34.2627451,41.222807 31.9529412,40.3508772 29.4117647,40.3508772 C26.2254902,40.3508772 24.8764706,43.3333333 23.9078431,43.6333333 C23.4333333,43.7789474 22.9411765,43.8526316 22.4490196,43.8596491 C20.9862745,43.8807018 19.6176471,43.2052632 18.6333333,42.2385965 L11.327451,35.0649123 C7.92745098,38.9403509 5.88235294,43.8140351 5.88235294,49.122807 C5.88235294,54.4315789 7.92745098,59.3052632 11.3254902,63.1807018 L18.5666667,56.0596491 C19.7568627,54.8912281 21.5098039,54.1824561 23.2490196,54.454386 C23.4960784,54.4947368 23.7411765,54.5491228 23.9843137,54.622807 C24.6137255,54.8122807 27.6960784,57.7508772 28.372549,57.8192982 C30.427451,62.154386 34.9098039,60.4192982 37.9862745,58.5052632 C38.9039216,56.6964912 40.6431373,55.0912281 42.9784314,53.822807" id="XMLID_115_" fill="#E9E8D3"></path>
            <path d="M81.372549,92.9824561 C78.7137255,92.9824561 76.1921569,92.6631579 73.9039216,92.0964912 C73.0117647,94.0561404 71.1568627,95.7912281 68.627451,97.1350877 C71.9607843,98.9070175 76.4352941,100 81.372549,100 C91.6607843,100 100,95.2877193 100,89.4736842 L100,82.4561404 C100,88.2701754 91.6607843,92.9824561 81.372549,92.9824561" id="XMLID_114_" fill="#E4AF18"></path>
            <path d="M81.372549,85.9649123 C78.9470588,85.9649123 76.6352941,85.6947368 74.5098039,85.2175439 L74.5098039,89.4736842 C74.5098039,90.3807018 74.2843137,91.2561404 73.9039216,92.0964912 C76.1921569,92.6631579 78.7137255,92.9824561 81.372549,92.9824561 C91.6607843,92.9824561 100,88.2701754 100,82.4561404 L100,75.4385965 C100,81.2526316 91.6607843,85.9649123 81.372549,85.9649123" id="XMLID_113_" fill="#D19D18"></path>
            <path d="M81.372549,78.9473684 C78.9470588,78.9473684 76.6352941,78.677193 74.5098039,78.2 L74.5098039,82.4561404 L74.5098039,85.2175439 C76.6352941,85.6947368 78.9470588,85.9649123 81.372549,85.9649123 C91.6607843,85.9649123 100,81.2526316 100,75.4385965 L100,68.4210526 C100,74.2350877 91.6607843,78.9473684 81.372549,78.9473684" id="XMLID_112_" fill="#E4AF18"></path>
            <path d="M81.372549,71.9298246 C78.9470588,71.9298246 76.6352941,71.6596491 74.5098039,71.1824561 L74.5098039,75.4385965 L74.5098039,78.2 C76.6352941,78.677193 78.9470588,78.9473684 81.372549,78.9473684 C91.6607843,78.9473684 100,74.2350877 100,68.4210526 L100,61.4035088 C100,67.2175439 91.6607843,71.9298246 81.372549,71.9298246" id="XMLID_111_" fill="#D19D18"></path>
            <path d="M81.372549,64.9122807 C78.9470588,64.9122807 76.6352941,64.6421053 74.5098039,64.1649123 L74.5098039,68.4210526 L74.5098039,71.1824561 C76.6352941,71.6596491 78.9470588,71.9298246 81.372549,71.9298246 C91.6607843,71.9298246 100,67.2175439 100,61.4035088 L100,54.3859649 C100,60.2 91.6607843,64.9122807 81.372549,64.9122807" id="XMLID_110_" fill="#E4AF18"></path>
            <path d="M81.372549,57.8947368 C78.1411765,57.8947368 75.1019608,57.4280702 72.4529412,56.6105263 C73.7588235,58.0491228 74.5098039,59.6754386 74.5098039,61.4035088 L74.5098039,64.1649123 C76.6352941,64.6421053 78.9470588,64.9122807 81.372549,64.9122807 C91.6607843,64.9122807 100,60.2 100,54.3859649 L100,47.3684211 C100,53.1824561 91.6607843,57.8947368 81.372549,57.8947368" id="XMLID_109_" fill="#D19D18"></path>
            <path d="M81.372549,50.877193 C71.0843137,50.877193 62.745098,46.1649123 62.745098,40.3508772 L62.745098,47.3684211 C62.745098,49.0964912 63.4960784,50.722807 64.8019608,52.1614035 C68.0784314,53.1736842 70.745098,54.7298246 72.4529412,56.6105263 C75.1019608,57.4280702 78.1411765,57.8947368 81.372549,57.8947368 C91.6607843,57.8947368 100,53.1824561 100,47.3684211 L100,40.3508772 C100,46.1649123 91.6607843,50.877193 81.372549,50.877193" id="XMLID_108_" fill="#E4AF18"></path>
            <path d="M80.3921569,29.8526316 L80.3921569,0 L74.5098039,0 L74.5098039,30.5719298 C76.345098,30.1596491 78.3235294,29.9140351 80.3921569,29.8526316" id="XMLID_107_" fill="#607B53"></path>
            <path d="M74.5098039,30.5719298 L74.5098039,0 L68.627451,0 L68.627451,32.6894737 C70.3215686,31.7877193 72.3098039,31.0649123 74.5098039,30.5719298" id="XMLID_106_" fill="#546949"></path>
            <path d="M68.627451,32.6877193 L68.627451,0.00175438596 L62.745098,0.00175438596 L62.745098,40.3526316 C62.745098,37.3263158 65.0137255,34.6087719 68.627451,32.6877193" id="XMLID_77_" fill="#607B53"></path>
        </g>
    </g>
</svg>